<?xml version="1.0" encoding="UTF-8" standalone="no"?>
<!DOCTYPE svg PUBLIC "-//W3C//DTD SVG 1.1//EN" "http://www.w3.org/Graphics/SVG/1.1/DTD/svg11.dtd">
<svg width="100%" height="100%" viewBox="0 0 1370 600" version="1.1" xmlns="http://www.w3.org/2000/svg" xmlns:xlink="http://www.w3.org/1999/xlink" xml:space="preserve" xmlns:serif="http://www.serif.com/" style="fill-rule:evenodd;clip-rule:evenodd;stroke-linejoin:round;stroke-miterlimit:2;">
    <g id="Layer1">
        <g transform="matrix(6.54122e-17,-1.06826,1.06826,6.54122e-17,-82.4801,171.256)">
            <circle cx="116.401" cy="121.19" r="41.674" style="fill:url(#_Radial1);"/>
        </g>
        <g transform="matrix(6.54122e-17,-1.06826,1.06826,6.54122e-17,-82.4801,271.424)">
            <circle cx="116.401" cy="121.19" r="41.674" style="fill:url(#_Radial2);"/>
        </g>
        <g transform="matrix(6.54122e-17,-1.06826,1.06826,6.54122e-17,-82.4801,371.592)">
            <circle cx="116.401" cy="121.19" r="41.674" style="fill:url(#_Radial3);"/>
        </g>
        <g transform="matrix(6.54122e-17,-1.06826,1.06826,6.54122e-17,-82.4801,471.76)">
            <circle cx="116.401" cy="121.19" r="41.674" style="fill:url(#_Radial4);"/>
        </g>
        <g transform="matrix(6.54122e-17,-1.06826,1.06826,6.54122e-17,117.856,371.592)">
            <circle cx="116.401" cy="121.19" r="41.674" style="fill:url(#_Radial5);"/>
        </g>
        <g transform="matrix(6.54122e-17,-1.06826,1.06826,6.54122e-17,117.856,271.424)">
            <circle cx="116.401" cy="121.19" r="41.674" style="fill:url(#_Radial6);"/>
        </g>
        <g transform="matrix(6.54122e-17,-1.06826,1.06826,6.54122e-17,117.856,471.76)">
            <circle cx="116.401" cy="121.19" r="41.674" style="fill:url(#_Radial7);"/>
        </g>
        <g transform="matrix(6.54122e-17,-1.06826,1.06826,6.54122e-17,117.856,571.929)">
            <circle cx="116.401" cy="121.19" r="41.674" style="fill:url(#_Radial8);"/>
        </g>
        <g transform="matrix(6.54122e-17,-1.06826,1.06826,6.54122e-17,17.6882,271.424)">
            <circle cx="116.401" cy="121.19" r="41.674" style="fill:url(#_Radial9);"/>
        </g>
        <g transform="matrix(6.54122e-17,-1.06826,1.06826,6.54122e-17,17.6882,371.592)">
            <circle cx="116.401" cy="121.19" r="41.674" style="fill:url(#_Radial10);"/>
        </g>
        <g transform="matrix(6.54122e-17,-1.06826,1.06826,6.54122e-17,17.6882,471.76)">
            <circle cx="116.401" cy="121.19" r="41.674" style="fill:url(#_Radial11);"/>
        </g>
        <g transform="matrix(6.54122e-17,-1.06826,1.06826,6.54122e-17,17.6882,571.929)">
            <circle cx="116.401" cy="121.19" r="41.674" style="fill:url(#_Radial12);"/>
        </g>
        <g transform="matrix(6.54122e-17,-1.06826,1.06826,6.54122e-17,218.025,471.76)">
            <circle cx="116.401" cy="121.19" r="41.674" style="fill:url(#_Radial13);"/>
        </g>
        <g transform="matrix(6.54122e-17,-1.06826,1.06826,6.54122e-17,218.025,371.592)">
            <circle cx="116.401" cy="121.19" r="41.674" style="fill:url(#_Radial14);"/>
        </g>
        <g transform="matrix(6.54122e-17,-1.06826,1.06826,6.54122e-17,218.025,571.929)">
            <circle cx="116.401" cy="121.19" r="41.674" style="fill:url(#_Radial15);"/>
        </g>
        <g transform="matrix(6.54122e-17,-1.06826,1.06826,6.54122e-17,218.025,672.097)">
            <circle cx="116.401" cy="121.19" r="41.674" style="fill:url(#_Radial16);"/>
        </g>
        <g transform="matrix(10.9757,0,0,10.9757,-4175.09,-751.426)">
            <g transform="matrix(12,0,0,12,418.605,97.1131)">
                <path d="M0.159,-0.581L0.159,-0L0.089,-0L0.089,-0.71L0.147,-0.71L0.613,-0.118L0.613,-0.709L0.683,-0.709L0.683,-0L0.618,-0L0.159,-0.581Z" style="fill:rgb(238,238,238);fill-rule:nonzero;"/>
            </g>
            <g transform="matrix(12,0,0,12,427.773,97.1131)">
                <path d="M0.3,0.01C0.263,0.01 0.228,0.003 0.196,-0.011C0.164,-0.026 0.136,-0.045 0.113,-0.07C0.09,-0.095 0.071,-0.124 0.059,-0.156C0.046,-0.189 0.039,-0.224 0.039,-0.261C0.039,-0.309 0.05,-0.354 0.073,-0.394C0.095,-0.434 0.126,-0.467 0.165,-0.491C0.204,-0.515 0.249,-0.527 0.299,-0.527C0.35,-0.527 0.395,-0.515 0.434,-0.49C0.472,-0.466 0.502,-0.433 0.524,-0.393C0.546,-0.353 0.557,-0.309 0.557,-0.262L0.557,-0.246C0.557,-0.241 0.557,-0.238 0.556,-0.235L0.11,-0.235C0.113,-0.198 0.124,-0.165 0.141,-0.136C0.159,-0.107 0.182,-0.084 0.211,-0.067C0.239,-0.05 0.27,-0.042 0.303,-0.042C0.337,-0.042 0.369,-0.051 0.4,-0.068C0.43,-0.085 0.451,-0.108 0.463,-0.136L0.522,-0.12C0.511,-0.095 0.495,-0.073 0.473,-0.053C0.451,-0.033 0.425,-0.018 0.396,-0.007C0.366,0.004 0.334,0.01 0.3,0.01ZM0.108,-0.284L0.493,-0.284C0.49,-0.322 0.48,-0.355 0.463,-0.383C0.445,-0.411 0.422,-0.434 0.394,-0.45C0.365,-0.466 0.334,-0.474 0.3,-0.474C0.266,-0.474 0.235,-0.466 0.207,-0.45C0.179,-0.434 0.156,-0.411 0.139,-0.382C0.121,-0.354 0.111,-0.321 0.108,-0.284Z" style="fill:rgb(238,238,238);fill-rule:nonzero;"/>
            </g>
            <g transform="matrix(12,0,0,12,434.649,97.1131)">
                <path d="M0.731,-0.519L0.798,-0.519L0.574,-0L0.515,-0L0.406,-0.258L0.298,-0L0.239,-0L0.015,-0.519L0.081,-0.519L0.271,-0.07L0.367,-0.304L0.279,-0.518L0.34,-0.518L0.406,-0.35L0.473,-0.518L0.533,-0.518L0.446,-0.304L0.542,-0.07L0.731,-0.519Z" style="fill:rgb(238,238,238);fill-rule:nonzero;"/>
            </g>
            <g transform="matrix(12,0,0,12,444.189,97.1131)">
                <path d="M0.301,0.01C0.263,0.01 0.228,0.003 0.197,-0.011C0.165,-0.026 0.137,-0.045 0.114,-0.071C0.09,-0.096 0.071,-0.125 0.059,-0.157C0.046,-0.19 0.039,-0.224 0.039,-0.26C0.039,-0.31 0.05,-0.354 0.072,-0.395C0.094,-0.435 0.125,-0.467 0.164,-0.491C0.203,-0.515 0.249,-0.527 0.3,-0.527C0.349,-0.527 0.392,-0.516 0.429,-0.494C0.466,-0.471 0.494,-0.441 0.512,-0.403L0.446,-0.382C0.431,-0.409 0.411,-0.43 0.385,-0.445C0.358,-0.46 0.329,-0.467 0.297,-0.467C0.262,-0.467 0.231,-0.458 0.202,-0.44C0.173,-0.422 0.151,-0.398 0.134,-0.367C0.117,-0.336 0.108,-0.3 0.108,-0.26C0.108,-0.221 0.117,-0.186 0.134,-0.154C0.151,-0.122 0.174,-0.097 0.203,-0.078C0.232,-0.059 0.263,-0.05 0.298,-0.05C0.321,-0.05 0.343,-0.054 0.364,-0.062C0.385,-0.07 0.403,-0.081 0.419,-0.095C0.434,-0.108 0.445,-0.123 0.45,-0.139L0.517,-0.119C0.508,-0.094 0.492,-0.072 0.47,-0.053C0.449,-0.033 0.424,-0.018 0.395,-0.007C0.366,0.004 0.334,0.01 0.301,0.01Z" style="fill:rgb(238,238,238);fill-rule:nonzero;"/>
            </g>
            <g transform="matrix(12,0,0,12,450.777,97.1131)">
                <path d="M0.033,-0.149C0.033,-0.181 0.042,-0.209 0.061,-0.233C0.08,-0.256 0.106,-0.275 0.139,-0.288C0.172,-0.301 0.21,-0.307 0.253,-0.307C0.278,-0.307 0.305,-0.305 0.332,-0.301C0.359,-0.297 0.384,-0.291 0.405,-0.283L0.405,-0.327C0.405,-0.371 0.392,-0.405 0.366,-0.431C0.34,-0.457 0.304,-0.47 0.258,-0.47C0.23,-0.47 0.203,-0.465 0.175,-0.455C0.149,-0.444 0.12,-0.429 0.091,-0.409L0.065,-0.457C0.099,-0.48 0.132,-0.498 0.165,-0.509C0.198,-0.521 0.231,-0.527 0.265,-0.527C0.329,-0.527 0.38,-0.509 0.417,-0.472C0.454,-0.436 0.473,-0.386 0.473,-0.321L0.473,-0.082C0.473,-0.073 0.475,-0.066 0.479,-0.061C0.483,-0.057 0.489,-0.055 0.498,-0.054L0.498,-0C0.491,0.001 0.484,0.001 0.479,0.002C0.474,0.003 0.47,0.003 0.467,0.002C0.45,0.001 0.438,-0.004 0.429,-0.014C0.42,-0.024 0.416,-0.035 0.415,-0.046L0.414,-0.084C0.391,-0.054 0.36,-0.031 0.323,-0.015C0.286,0.002 0.248,0.01 0.209,0.01C0.176,0.01 0.146,0.003 0.118,-0.011C0.092,-0.026 0.07,-0.045 0.056,-0.069C0.041,-0.093 0.033,-0.12 0.033,-0.149ZM0.382,-0.109C0.389,-0.119 0.395,-0.128 0.399,-0.136C0.403,-0.145 0.405,-0.152 0.405,-0.159L0.405,-0.234C0.382,-0.243 0.359,-0.249 0.335,-0.254C0.31,-0.259 0.286,-0.261 0.261,-0.261C0.212,-0.261 0.173,-0.251 0.143,-0.232C0.113,-0.213 0.098,-0.187 0.098,-0.154C0.098,-0.135 0.103,-0.117 0.113,-0.1C0.123,-0.083 0.138,-0.069 0.157,-0.058C0.176,-0.047 0.199,-0.042 0.225,-0.042C0.258,-0.042 0.288,-0.048 0.317,-0.061C0.345,-0.073 0.367,-0.09 0.382,-0.109Z" style="fill:rgb(238,238,238);fill-rule:nonzero;"/>
            </g>
            <g transform="matrix(12,0,0,12,457.317,97.1131)">
                <path d="M0.246,0.01C0.203,0.01 0.164,0.003 0.127,-0.011C0.09,-0.025 0.059,-0.046 0.032,-0.075L0.06,-0.123C0.089,-0.096 0.119,-0.076 0.149,-0.064C0.178,-0.051 0.21,-0.045 0.243,-0.045C0.284,-0.045 0.317,-0.053 0.342,-0.069C0.367,-0.085 0.38,-0.109 0.38,-0.139C0.38,-0.16 0.374,-0.175 0.362,-0.186C0.349,-0.197 0.332,-0.206 0.309,-0.213C0.285,-0.22 0.258,-0.228 0.226,-0.236C0.19,-0.246 0.16,-0.256 0.136,-0.267C0.111,-0.278 0.093,-0.292 0.081,-0.309C0.068,-0.326 0.062,-0.348 0.062,-0.375C0.062,-0.409 0.07,-0.437 0.087,-0.459C0.105,-0.481 0.128,-0.498 0.158,-0.51C0.187,-0.521 0.22,-0.527 0.257,-0.527C0.297,-0.527 0.332,-0.521 0.363,-0.508C0.394,-0.495 0.419,-0.478 0.438,-0.455L0.405,-0.409C0.386,-0.43 0.364,-0.446 0.339,-0.457C0.313,-0.467 0.284,-0.472 0.253,-0.472C0.232,-0.472 0.211,-0.469 0.192,-0.464C0.173,-0.458 0.157,-0.449 0.145,-0.436C0.132,-0.423 0.126,-0.405 0.126,-0.383C0.126,-0.364 0.131,-0.35 0.14,-0.339C0.149,-0.329 0.163,-0.32 0.182,-0.313C0.201,-0.307 0.224,-0.299 0.251,-0.291C0.29,-0.281 0.325,-0.27 0.354,-0.259C0.383,-0.248 0.406,-0.234 0.422,-0.217C0.438,-0.199 0.446,-0.175 0.446,-0.144C0.446,-0.096 0.428,-0.058 0.391,-0.031C0.354,-0.004 0.306,0.01 0.246,0.01Z" style="fill:rgb(238,238,238);fill-rule:nonzero;"/>
            </g>
            <g transform="matrix(12,0,0,12,463.113,97.1131)">
                <path d="M0.325,-0.021C0.32,-0.019 0.311,-0.015 0.3,-0.01C0.289,-0.005 0.275,-0 0.259,0.004C0.243,0.008 0.226,0.01 0.207,0.01C0.188,0.01 0.17,0.006 0.153,-0.001C0.136,-0.008 0.122,-0.02 0.112,-0.035C0.102,-0.05 0.097,-0.068 0.097,-0.09L0.097,-0.465L0.025,-0.465L0.025,-0.519L0.097,-0.519L0.097,-0.695L0.165,-0.695L0.165,-0.519L0.285,-0.519L0.285,-0.465L0.165,-0.465L0.165,-0.109C0.166,-0.091 0.173,-0.076 0.186,-0.067C0.198,-0.058 0.212,-0.053 0.228,-0.053C0.247,-0.053 0.264,-0.056 0.279,-0.063C0.294,-0.069 0.304,-0.073 0.307,-0.076L0.325,-0.021Z" style="fill:rgb(238,238,238);fill-rule:nonzero;"/>
            </g>
            <g transform="matrix(12,0,0,12,467.133,97.1131)">
                <path d="M0.078,-0.73L0.146,-0.73L0.146,-0.114C0.146,-0.088 0.151,-0.071 0.16,-0.063C0.169,-0.055 0.181,-0.051 0.194,-0.051C0.206,-0.051 0.218,-0.052 0.23,-0.055C0.242,-0.058 0.252,-0.06 0.261,-0.063L0.273,-0.008C0.26,-0.003 0.245,0.002 0.227,0.005C0.208,0.008 0.192,0.01 0.179,0.01C0.148,0.01 0.124,0.001 0.106,-0.017C0.087,-0.035 0.078,-0.06 0.078,-0.092L0.078,-0.73Z" style="fill:rgb(238,238,238);fill-rule:nonzero;"/>
            </g>
            <g transform="matrix(12,0,0,12,470.397,97.1131)">
                <path d="M0.3,0.01C0.263,0.01 0.228,0.003 0.196,-0.011C0.164,-0.026 0.136,-0.045 0.113,-0.07C0.09,-0.095 0.071,-0.124 0.059,-0.156C0.046,-0.189 0.039,-0.224 0.039,-0.261C0.039,-0.309 0.05,-0.354 0.073,-0.394C0.095,-0.434 0.126,-0.467 0.165,-0.491C0.204,-0.515 0.249,-0.527 0.299,-0.527C0.35,-0.527 0.395,-0.515 0.434,-0.49C0.472,-0.466 0.502,-0.433 0.524,-0.393C0.546,-0.353 0.557,-0.309 0.557,-0.262L0.557,-0.246C0.557,-0.241 0.557,-0.238 0.556,-0.235L0.11,-0.235C0.113,-0.198 0.124,-0.165 0.141,-0.136C0.159,-0.107 0.182,-0.084 0.211,-0.067C0.239,-0.05 0.27,-0.042 0.303,-0.042C0.337,-0.042 0.369,-0.051 0.4,-0.068C0.43,-0.085 0.451,-0.108 0.463,-0.136L0.522,-0.12C0.511,-0.095 0.495,-0.073 0.473,-0.053C0.451,-0.033 0.425,-0.018 0.396,-0.007C0.366,0.004 0.334,0.01 0.3,0.01ZM0.108,-0.284L0.493,-0.284C0.49,-0.322 0.48,-0.355 0.463,-0.383C0.445,-0.411 0.422,-0.434 0.394,-0.45C0.365,-0.466 0.334,-0.474 0.3,-0.474C0.266,-0.474 0.235,-0.466 0.207,-0.45C0.179,-0.434 0.156,-0.411 0.139,-0.382C0.121,-0.354 0.111,-0.321 0.108,-0.284Z" style="fill:rgb(238,238,238);fill-rule:nonzero;"/>
            </g>
        </g>
        <g transform="matrix(20.7337,0,0,20.7337,-7680.22,-7242.27)">
            <g transform="matrix(12,0,0,12,390.711,374.15)">
                <path d="M0.369,0.005C0.323,0.005 0.28,-0.004 0.238,-0.023C0.198,-0.042 0.162,-0.068 0.131,-0.101C0.1,-0.134 0.075,-0.172 0.058,-0.216C0.041,-0.26 0.032,-0.308 0.032,-0.359C0.032,-0.408 0.041,-0.454 0.058,-0.497C0.075,-0.54 0.1,-0.577 0.131,-0.61C0.162,-0.643 0.199,-0.668 0.241,-0.687C0.283,-0.706 0.329,-0.715 0.378,-0.715C0.445,-0.715 0.502,-0.701 0.55,-0.673C0.597,-0.644 0.633,-0.607 0.657,-0.56L0.554,-0.484C0.536,-0.519 0.511,-0.546 0.478,-0.565C0.446,-0.584 0.411,-0.593 0.373,-0.593C0.343,-0.593 0.316,-0.587 0.291,-0.574C0.266,-0.561 0.245,-0.544 0.227,-0.522C0.209,-0.5 0.195,-0.475 0.186,-0.446C0.176,-0.417 0.171,-0.387 0.171,-0.355C0.171,-0.321 0.176,-0.29 0.187,-0.261C0.197,-0.232 0.212,-0.207 0.231,-0.186C0.25,-0.165 0.272,-0.148 0.297,-0.136C0.322,-0.123 0.35,-0.117 0.381,-0.117C0.417,-0.117 0.452,-0.126 0.485,-0.145C0.518,-0.164 0.548,-0.191 0.577,-0.227L0.577,-0.091C0.518,-0.027 0.448,0.005 0.369,0.005ZM0.567,-0.264L0.424,-0.264L0.424,-0.365L0.681,-0.365L0.681,-0L0.567,-0L0.567,-0.264Z" style="fill:rgb(235,235,235);fill-rule:nonzero;"/>
            </g>
            <g transform="matrix(12,0,0,12,399.411,374.15)">
                <path d="M0.303,0.01C0.26,0.01 0.222,0.003 0.188,-0.011C0.154,-0.025 0.125,-0.045 0.102,-0.07C0.078,-0.095 0.06,-0.124 0.047,-0.156C0.034,-0.188 0.028,-0.222 0.028,-0.258C0.028,-0.294 0.034,-0.329 0.047,-0.361C0.06,-0.393 0.078,-0.422 0.102,-0.447C0.125,-0.472 0.154,-0.492 0.188,-0.506C0.222,-0.52 0.26,-0.527 0.303,-0.527C0.346,-0.527 0.384,-0.52 0.418,-0.506C0.451,-0.492 0.48,-0.472 0.504,-0.447C0.528,-0.422 0.546,-0.393 0.559,-0.361C0.571,-0.329 0.577,-0.294 0.577,-0.258C0.577,-0.222 0.571,-0.188 0.559,-0.156C0.546,-0.124 0.528,-0.095 0.504,-0.07C0.481,-0.045 0.452,-0.025 0.418,-0.011C0.384,0.003 0.346,0.01 0.303,0.01ZM0.166,-0.258C0.166,-0.228 0.172,-0.201 0.184,-0.178C0.196,-0.155 0.212,-0.137 0.233,-0.124C0.254,-0.111 0.277,-0.104 0.303,-0.104C0.328,-0.104 0.351,-0.111 0.372,-0.124C0.393,-0.138 0.409,-0.156 0.422,-0.179C0.434,-0.202 0.44,-0.229 0.44,-0.259C0.44,-0.288 0.434,-0.315 0.422,-0.338C0.409,-0.362 0.393,-0.38 0.372,-0.393C0.351,-0.406 0.328,-0.413 0.303,-0.413C0.277,-0.413 0.254,-0.406 0.233,-0.393C0.212,-0.379 0.196,-0.361 0.184,-0.338C0.172,-0.315 0.166,-0.288 0.166,-0.258Z" style="fill:rgb(235,235,235);fill-rule:nonzero;"/>
            </g>
            <g transform="matrix(12,0,0,12,409.563,374.15)">
                <path d="M0.031,-0.361C0.031,-0.404 0.039,-0.447 0.055,-0.489C0.07,-0.53 0.093,-0.568 0.123,-0.603C0.153,-0.637 0.19,-0.664 0.233,-0.685C0.276,-0.705 0.326,-0.715 0.381,-0.715C0.446,-0.715 0.503,-0.701 0.551,-0.672C0.598,-0.643 0.634,-0.606 0.657,-0.56L0.551,-0.487C0.539,-0.514 0.523,-0.535 0.504,-0.551C0.485,-0.566 0.464,-0.577 0.442,-0.584C0.42,-0.59 0.398,-0.593 0.377,-0.593C0.342,-0.593 0.312,-0.586 0.286,-0.572C0.261,-0.558 0.239,-0.54 0.222,-0.517C0.205,-0.494 0.192,-0.469 0.184,-0.441C0.175,-0.413 0.171,-0.385 0.171,-0.357C0.171,-0.326 0.176,-0.296 0.186,-0.267C0.196,-0.237 0.21,-0.212 0.229,-0.19C0.247,-0.167 0.269,-0.15 0.295,-0.137C0.32,-0.124 0.348,-0.117 0.379,-0.117C0.401,-0.117 0.423,-0.121 0.446,-0.128C0.469,-0.135 0.49,-0.147 0.509,-0.163C0.528,-0.179 0.543,-0.2 0.554,-0.225L0.667,-0.16C0.653,-0.125 0.63,-0.095 0.599,-0.07C0.567,-0.045 0.531,-0.027 0.492,-0.014C0.453,-0.001 0.414,0.005 0.375,0.005C0.324,0.005 0.278,-0.006 0.236,-0.027C0.194,-0.048 0.158,-0.076 0.128,-0.111C0.097,-0.146 0.074,-0.185 0.057,-0.229C0.04,-0.272 0.031,-0.316 0.031,-0.361Z" style="fill:rgb(235,235,235);fill-rule:nonzero;"/>
            </g>
            <g transform="matrix(12,0,0,12,417.795,374.15)">
                <path d="M0.06,-0.73L0.194,-0.73L0.194,-0.166C0.194,-0.142 0.198,-0.126 0.206,-0.118C0.214,-0.109 0.225,-0.105 0.239,-0.105C0.25,-0.105 0.261,-0.106 0.272,-0.109C0.283,-0.112 0.293,-0.115 0.302,-0.119L0.32,-0.017C0.302,-0.008 0.281,-0.002 0.257,0.003C0.233,0.008 0.211,0.01 0.192,0.01C0.15,0.01 0.117,-0.001 0.095,-0.024C0.071,-0.046 0.06,-0.078 0.06,-0.119L0.06,-0.73Z" style="fill:rgb(235,235,235);fill-rule:nonzero;"/>
            </g>
            <g transform="matrix(12,0,0,12,421.599,374.15)">
                <path d="M0.056,-0.194L0.056,-0.519L0.19,-0.519L0.19,-0.224C0.19,-0.184 0.197,-0.154 0.212,-0.134C0.227,-0.114 0.248,-0.104 0.277,-0.104C0.294,-0.104 0.312,-0.107 0.329,-0.114C0.345,-0.121 0.361,-0.131 0.376,-0.145C0.39,-0.159 0.402,-0.176 0.412,-0.197L0.412,-0.519L0.546,-0.519L0.546,-0.15C0.546,-0.136 0.549,-0.126 0.554,-0.12C0.559,-0.114 0.567,-0.11 0.578,-0.109L0.578,-0C0.565,0.002 0.554,0.003 0.545,0.004C0.536,0.005 0.527,0.006 0.52,0.006C0.496,0.006 0.476,0.001 0.462,-0.01C0.447,-0.021 0.438,-0.036 0.435,-0.055L0.432,-0.097C0.409,-0.062 0.379,-0.035 0.342,-0.017C0.305,0.001 0.265,0.01 0.221,0.01C0.167,0.01 0.126,-0.007 0.098,-0.042C0.07,-0.077 0.056,-0.127 0.056,-0.194Z" style="fill:rgb(235,235,235);fill-rule:nonzero;"/>
            </g>
            <g transform="matrix(12,0,0,12,429.015,374.15)">
                <path d="M0.359,0.01C0.319,0.01 0.283,0.001 0.252,-0.017C0.221,-0.035 0.196,-0.06 0.178,-0.091L0.178,-0L0.061,-0L0.061,-0.73L0.195,-0.73L0.195,-0.426C0.214,-0.457 0.238,-0.482 0.269,-0.5C0.299,-0.518 0.334,-0.527 0.375,-0.527C0.409,-0.527 0.44,-0.52 0.468,-0.506C0.496,-0.492 0.52,-0.472 0.541,-0.447C0.561,-0.422 0.577,-0.393 0.588,-0.361C0.599,-0.329 0.604,-0.294 0.604,-0.257C0.604,-0.22 0.598,-0.185 0.586,-0.153C0.573,-0.121 0.556,-0.092 0.534,-0.068C0.512,-0.043 0.486,-0.024 0.457,-0.01C0.427,0.003 0.394,0.01 0.359,0.01ZM0.322,-0.104C0.343,-0.104 0.363,-0.108 0.381,-0.116C0.398,-0.124 0.413,-0.135 0.427,-0.149C0.44,-0.163 0.45,-0.179 0.457,-0.198C0.464,-0.216 0.467,-0.236 0.467,-0.256C0.467,-0.284 0.461,-0.31 0.45,-0.334C0.438,-0.358 0.422,-0.377 0.402,-0.391C0.381,-0.406 0.357,-0.413 0.33,-0.413C0.311,-0.413 0.292,-0.409 0.275,-0.4C0.257,-0.391 0.241,-0.379 0.228,-0.364C0.214,-0.349 0.203,-0.332 0.195,-0.313L0.195,-0.19C0.199,-0.177 0.205,-0.165 0.215,-0.155C0.224,-0.145 0.234,-0.136 0.246,-0.128C0.258,-0.121 0.271,-0.115 0.283,-0.11C0.297,-0.106 0.309,-0.104 0.322,-0.104Z" style="fill:rgb(235,235,235);fill-rule:nonzero;"/>
            </g>
        </g>
    </g>
    <defs>
        <radialGradient id="_Radial1" cx="0" cy="0" r="1" gradientUnits="userSpaceOnUse" gradientTransform="matrix(41.6744,0,0,41.6744,116.401,121.19)"><stop offset="0" style="stop-color:rgb(235,235,235);stop-opacity:1"/><stop offset="0.58" style="stop-color:rgb(239,239,239);stop-opacity:1"/><stop offset="1" style="stop-color:white;stop-opacity:1"/></radialGradient>
        <radialGradient id="_Radial2" cx="0" cy="0" r="1" gradientUnits="userSpaceOnUse" gradientTransform="matrix(41.6744,0,0,41.6744,116.401,121.19)"><stop offset="0" style="stop-color:rgb(235,235,235);stop-opacity:1"/><stop offset="0.58" style="stop-color:rgb(239,239,239);stop-opacity:1"/><stop offset="1" style="stop-color:white;stop-opacity:1"/></radialGradient>
        <radialGradient id="_Radial3" cx="0" cy="0" r="1" gradientUnits="userSpaceOnUse" gradientTransform="matrix(41.6744,0,0,41.6744,116.401,121.19)"><stop offset="0" style="stop-color:rgb(235,235,235);stop-opacity:1"/><stop offset="0.58" style="stop-color:rgb(239,239,239);stop-opacity:1"/><stop offset="1" style="stop-color:white;stop-opacity:1"/></radialGradient>
        <radialGradient id="_Radial4" cx="0" cy="0" r="1" gradientUnits="userSpaceOnUse" gradientTransform="matrix(41.6744,0,0,41.6744,116.401,121.19)"><stop offset="0" style="stop-color:rgb(235,235,235);stop-opacity:1"/><stop offset="0.58" style="stop-color:rgb(239,239,239);stop-opacity:1"/><stop offset="1" style="stop-color:white;stop-opacity:1"/></radialGradient>
        <radialGradient id="_Radial5" cx="0" cy="0" r="1" gradientUnits="userSpaceOnUse" gradientTransform="matrix(41.6744,0,0,41.6744,116.401,121.19)"><stop offset="0" style="stop-color:rgb(235,235,235);stop-opacity:1"/><stop offset="0.58" style="stop-color:rgb(239,239,239);stop-opacity:1"/><stop offset="1" style="stop-color:white;stop-opacity:1"/></radialGradient>
        <radialGradient id="_Radial6" cx="0" cy="0" r="1" gradientUnits="userSpaceOnUse" gradientTransform="matrix(41.6744,0,0,41.6744,116.401,121.19)"><stop offset="0" style="stop-color:rgb(235,235,235);stop-opacity:1"/><stop offset="0.58" style="stop-color:rgb(239,239,239);stop-opacity:1"/><stop offset="1" style="stop-color:white;stop-opacity:1"/></radialGradient>
        <radialGradient id="_Radial7" cx="0" cy="0" r="1" gradientUnits="userSpaceOnUse" gradientTransform="matrix(41.6744,0,0,41.6744,116.401,121.19)"><stop offset="0" style="stop-color:rgb(235,235,235);stop-opacity:1"/><stop offset="0.58" style="stop-color:rgb(239,239,239);stop-opacity:1"/><stop offset="1" style="stop-color:white;stop-opacity:1"/></radialGradient>
        <radialGradient id="_Radial8" cx="0" cy="0" r="1" gradientUnits="userSpaceOnUse" gradientTransform="matrix(41.6744,0,0,41.6744,116.401,121.19)"><stop offset="0" style="stop-color:rgb(235,235,235);stop-opacity:1"/><stop offset="0.58" style="stop-color:rgb(239,239,239);stop-opacity:1"/><stop offset="1" style="stop-color:white;stop-opacity:1"/></radialGradient>
        <radialGradient id="_Radial9" cx="0" cy="0" r="1" gradientUnits="userSpaceOnUse" gradientTransform="matrix(83.3488,0,0,83.3488,74.7265,121.19)"><stop offset="0" style="stop-color:black;stop-opacity:1"/><stop offset="0.58" style="stop-color:rgb(16,16,16);stop-opacity:1"/><stop offset="0.8" style="stop-color:rgb(50,50,50);stop-opacity:1"/><stop offset="1" style="stop-color:rgb(83,83,83);stop-opacity:1"/></radialGradient>
        <radialGradient id="_Radial10" cx="0" cy="0" r="1" gradientUnits="userSpaceOnUse" gradientTransform="matrix(83.3488,0,0,83.3488,74.7265,121.19)"><stop offset="0" style="stop-color:black;stop-opacity:1"/><stop offset="0.58" style="stop-color:rgb(16,16,16);stop-opacity:1"/><stop offset="0.8" style="stop-color:rgb(50,50,50);stop-opacity:1"/><stop offset="1" style="stop-color:rgb(83,83,83);stop-opacity:1"/></radialGradient>
        <radialGradient id="_Radial11" cx="0" cy="0" r="1" gradientUnits="userSpaceOnUse" gradientTransform="matrix(83.3488,0,0,83.3488,74.7265,121.19)"><stop offset="0" style="stop-color:black;stop-opacity:1"/><stop offset="0.58" style="stop-color:rgb(16,16,16);stop-opacity:1"/><stop offset="0.8" style="stop-color:rgb(50,50,50);stop-opacity:1"/><stop offset="1" style="stop-color:rgb(83,83,83);stop-opacity:1"/></radialGradient>
        <radialGradient id="_Radial12" cx="0" cy="0" r="1" gradientUnits="userSpaceOnUse" gradientTransform="matrix(83.3488,0,0,83.3488,74.7265,121.19)"><stop offset="0" style="stop-color:black;stop-opacity:1"/><stop offset="0.58" style="stop-color:rgb(16,16,16);stop-opacity:1"/><stop offset="0.8" style="stop-color:rgb(50,50,50);stop-opacity:1"/><stop offset="1" style="stop-color:rgb(83,83,83);stop-opacity:1"/></radialGradient>
        <radialGradient id="_Radial13" cx="0" cy="0" r="1" gradientUnits="userSpaceOnUse" gradientTransform="matrix(83.3488,0,0,83.3488,74.7265,121.19)"><stop offset="0" style="stop-color:black;stop-opacity:1"/><stop offset="0.58" style="stop-color:rgb(16,16,16);stop-opacity:1"/><stop offset="0.8" style="stop-color:rgb(50,50,50);stop-opacity:1"/><stop offset="1" style="stop-color:rgb(83,83,83);stop-opacity:1"/></radialGradient>
        <radialGradient id="_Radial14" cx="0" cy="0" r="1" gradientUnits="userSpaceOnUse" gradientTransform="matrix(83.3488,0,0,83.3488,74.7265,121.19)"><stop offset="0" style="stop-color:black;stop-opacity:1"/><stop offset="0.58" style="stop-color:rgb(16,16,16);stop-opacity:1"/><stop offset="0.8" style="stop-color:rgb(50,50,50);stop-opacity:1"/><stop offset="1" style="stop-color:rgb(83,83,83);stop-opacity:1"/></radialGradient>
        <radialGradient id="_Radial15" cx="0" cy="0" r="1" gradientUnits="userSpaceOnUse" gradientTransform="matrix(83.3488,0,0,83.3488,74.7265,121.19)"><stop offset="0" style="stop-color:black;stop-opacity:1"/><stop offset="0.58" style="stop-color:rgb(16,16,16);stop-opacity:1"/><stop offset="0.8" style="stop-color:rgb(50,50,50);stop-opacity:1"/><stop offset="1" style="stop-color:rgb(83,83,83);stop-opacity:1"/></radialGradient>
        <radialGradient id="_Radial16" cx="0" cy="0" r="1" gradientUnits="userSpaceOnUse" gradientTransform="matrix(83.3488,0,0,83.3488,74.7265,121.19)"><stop offset="0" style="stop-color:black;stop-opacity:1"/><stop offset="0.58" style="stop-color:rgb(16,16,16);stop-opacity:1"/><stop offset="0.8" style="stop-color:rgb(50,50,50);stop-opacity:1"/><stop offset="1" style="stop-color:rgb(83,83,83);stop-opacity:1"/></radialGradient>
    </defs>
</svg>
